# xmcd CD database file
#
# Track frame offsets:
#	150
#	22286
#	47524
#	72307
#	103222
#	122373
#	147581
#	174417
#	196281
#	219714
#	239458
#	261440
#
# Disc length: 3775 seconds
#
# Revision: 0
# Processed by: cddbd v1.5.2PL0 Copyright (c) Steve Scherf et al.
# Submitted via: CDex 1.51
#
DISCID=bb0ebd0c
DTITLE=Mezzoforte - Volcanic
DYEAR=2010
DGENRE=Jazz
TTITLE0=It's A Funk Thing
TTITLE1=Berlin Boogie
TTITLE2=High Life
TTITLE3=Sleeping Volcano
TTITLE4=Stepping Out
TTITLE5=Jump Town
TTITLE6=Sea Breeze
TTITLE7=Bright And Early
TTITLE8=Hatton
TTITLE9=Down On Sunset
TTITLE10=So What's Up?
TTITLE11=Wandering Soul
EXTD=YEAR: 2010
EXTT0=
EXTT1=
EXTT2=
EXTT3=
EXTT4=
EXTT5=
EXTT6=
EXTT7=
EXTT8=
EXTT9=
EXTT10=
EXTT11=
PLAYORDER=
